<svg xmlns="http://www.w3.org/2000/svg" xmlns:xlink="http://www.w3.org/1999/xlink" width="73" zoomAndPan="magnify" viewBox="0 0 54.75 54.75" height="73" preserveAspectRatio="xMidYMid meet" version="1.0"><defs><clipPath id="c55981ff5e"><path d="M 0 0 L 54.054688 0 L 54.054688 54.054688 L 0 54.054688 Z M 0 0 " clip-rule="nonzero"/></clipPath><clipPath id="2d9f5a8c31"><path d="M 27.027344 0 C 12.101562 0 0 12.101562 0 27.027344 C 0 41.957031 12.101562 54.054688 27.027344 54.054688 C 41.957031 54.054688 54.054688 41.957031 54.054688 27.027344 C 54.054688 12.101562 41.957031 0 27.027344 0 Z M 27.027344 0 " clip-rule="nonzero"/></clipPath><clipPath id="f11a0f8ec8"><path d="M 18.835938 9.519531 L 37.503906 9.519531 L 37.503906 44.609375 L 18.835938 44.609375 Z M 18.835938 9.519531 " clip-rule="nonzero"/></clipPath></defs><g clip-path="url(#c55981ff5e)"><g clip-path="url(#2d9f5a8c31)"><path fill="#ffd747" d="M 0 0 L 54.054688 0 L 54.054688 54.054688 L 0 54.054688 Z M 0 0 " fill-opacity="1" fill-rule="nonzero"/></g></g><g clip-path="url(#f11a0f8ec8)"><path fill="#ffffff" d="M 21.515625 33.628906 C 21.515625 33.628906 24.460938 36.496094 28.285156 36.496094 C 30.347656 36.496094 32.222656 35.425781 32.222656 33.207031 C 32.222656 28.617188 19.296875 29.078125 19.296875 20.855469 C 19.296875 16.917969 22.242188 13.855469 26.484375 13.167969 L 26.484375 9.574219 L 29.773438 9.574219 L 29.773438 13.09375 C 34.210938 13.472656 36.503906 15.882812 36.503906 15.882812 L 34.371094 19.910156 C 34.371094 19.910156 31.765625 17.542969 28.367188 17.542969 C 26.074219 17.542969 24.277344 18.878906 24.277344 20.792969 C 24.277344 25.34375 37.164062 24.539062 37.164062 33.113281 C 37.164062 37.011719 34.449219 40.339844 29.785156 40.953125 L 29.785156 44.46875 L 26.484375 44.46875 L 26.484375 40.933594 C 21.550781 40.359375 18.835938 37.339844 18.835938 37.339844 Z M 21.515625 33.628906 " fill-opacity="1" fill-rule="nonzero"/></g></svg>