<svg xmlns="http://www.w3.org/2000/svg" xmlns:xlink="http://www.w3.org/1999/xlink" width="73" zoomAndPan="magnify" viewBox="0 0 54.75 54.75" height="73" preserveAspectRatio="xMidYMid meet" version="1.0"><defs><clipPath id="22da8efc58"><path d="M 0 0 L 54.054688 0 L 54.054688 54.054688 L 0 54.054688 Z M 0 0 " clip-rule="nonzero"/></clipPath><clipPath id="ca44d200dd"><path d="M 27.027344 0 C 12.101562 0 0 12.101562 0 27.027344 C 0 41.957031 12.101562 54.054688 27.027344 54.054688 C 41.957031 54.054688 54.054688 41.957031 54.054688 27.027344 C 54.054688 12.101562 41.957031 0 27.027344 0 Z M 27.027344 0 " clip-rule="nonzero"/></clipPath><clipPath id="62e8b5d1b7"><path d="M 9.390625 11.386719 L 44.480469 11.386719 L 44.480469 45.726562 L 9.390625 45.726562 Z M 9.390625 11.386719 " clip-rule="nonzero"/></clipPath><clipPath id="159e87c85b"><path d="M 31 28 L 40 28 L 40 45.726562 L 31 45.726562 Z M 31 28 " clip-rule="nonzero"/></clipPath><clipPath id="816256a1b7"><path d="M 14 28 L 24 28 L 24 45.726562 L 14 45.726562 Z M 14 28 " clip-rule="nonzero"/></clipPath></defs><g clip-path="url(#22da8efc58)"><g clip-path="url(#ca44d200dd)"><path fill="#0097b2" d="M 0 0 L 54.054688 0 L 54.054688 54.054688 L 0 54.054688 Z M 0 0 " fill-opacity="1" fill-rule="nonzero"/></g></g><g clip-path="url(#62e8b5d1b7)"><path fill="#ffffff" d="M 42.523438 20.949219 C 41.671875 20.949219 40.945312 21.457031 40.613281 22.183594 L 37.53125 22.183594 L 37.53125 18.722656 C 38.492188 18.367188 39.183594 17.449219 39.183594 16.363281 C 39.183594 14.96875 38.054688 13.839844 36.660156 13.839844 C 35.265625 13.839844 34.136719 14.96875 34.136719 16.363281 C 34.136719 17.449219 34.828125 18.367188 35.789062 18.722656 L 35.789062 22.6875 L 27.894531 30.421875 L 27.894531 17.523438 C 29.203125 17.144531 30.164062 15.953125 30.164062 14.523438 C 30.164062 12.789062 28.757812 11.382812 27.023438 11.382812 C 25.289062 11.382812 23.886719 12.789062 23.886719 14.523438 C 23.886719 15.953125 24.847656 17.144531 26.15625 17.523438 L 26.15625 30.421875 L 18.257812 22.6875 L 18.257812 18.722656 C 19.222656 18.367188 19.914062 17.449219 19.914062 16.363281 C 19.914062 14.96875 18.78125 13.839844 17.390625 13.839844 C 15.996094 13.839844 14.867188 14.96875 14.867188 16.363281 C 14.867188 17.449219 15.554688 18.367188 16.519531 18.722656 L 16.519531 22.183594 L 13.4375 22.183594 C 13.105469 21.457031 12.378906 20.949219 11.527344 20.949219 C 10.367188 20.949219 9.425781 21.890625 9.425781 23.050781 C 9.425781 24.210938 10.367188 25.152344 11.527344 25.152344 C 12.378906 25.152344 13.105469 24.648438 13.4375 23.921875 L 17.03125 23.921875 L 26.15625 32.859375 L 26.15625 45.371094 L 27.894531 45.371094 L 27.894531 32.859375 L 37.015625 23.921875 L 40.613281 23.921875 C 40.941406 24.648438 41.671875 25.152344 42.523438 25.152344 C 43.683594 25.152344 44.625 24.210938 44.625 23.050781 C 44.625 21.890625 43.683594 20.949219 42.523438 20.949219 " fill-opacity="1" fill-rule="nonzero"/></g><g clip-path="url(#159e87c85b)"><path fill="#ffffff" d="M 37.894531 28.40625 C 37.023438 28.40625 36.316406 29.113281 36.316406 29.984375 C 36.316406 30.089844 36.328125 30.195312 36.351562 30.296875 L 31.300781 35.347656 C 31.136719 35.511719 31.046875 35.734375 31.046875 35.964844 L 31.046875 45.371094 L 32.785156 45.371094 L 32.785156 36.324219 L 37.578125 31.527344 C 37.683594 31.550781 37.789062 31.558594 37.894531 31.558594 C 38.765625 31.558594 39.472656 30.855469 39.472656 29.984375 C 39.472656 29.113281 38.765625 28.40625 37.894531 28.40625 " fill-opacity="1" fill-rule="nonzero"/></g><g clip-path="url(#816256a1b7)"><path fill="#ffffff" d="M 17.699219 30.300781 C 17.71875 30.195312 17.730469 30.089844 17.730469 29.984375 C 17.730469 29.113281 17.023438 28.40625 16.152344 28.40625 C 15.28125 28.40625 14.578125 29.113281 14.578125 29.984375 C 14.578125 30.855469 15.28125 31.558594 16.152344 31.558594 C 16.261719 31.558594 16.367188 31.550781 16.46875 31.527344 L 21.265625 36.324219 L 21.265625 45.371094 L 23.003906 45.371094 L 23.003906 35.964844 C 23.003906 35.734375 22.910156 35.511719 22.75 35.347656 L 17.699219 30.300781 " fill-opacity="1" fill-rule="nonzero"/></g></svg>