<svg xmlns="http://www.w3.org/2000/svg" xmlns:xlink="http://www.w3.org/1999/xlink" width="80" zoomAndPan="magnify" viewBox="0 0 60 60" height="80" preserveAspectRatio="xMidYMid meet" version="1.0"><defs><g/></defs><g fill="#000000" fill-opacity="1"><g transform="translate(10.408575, 43.171259)"><g><path d="M 23.96875 -22.828125 L 23.96875 -18.265625 L 5.703125 -18.265625 L 5.703125 -13.6875 L 19.40625 -13.6875 C 20.238281 -13.6875 21 -13.484375 21.6875 -13.078125 C 22.382812 -12.671875 22.9375 -12.117188 23.34375 -11.421875 C 23.757812 -10.734375 23.96875 -9.96875 23.96875 -9.125 L 23.96875 -4.5625 C 23.96875 -3.726562 23.757812 -2.960938 23.34375 -2.265625 C 22.9375 -1.578125 22.382812 -1.023438 21.6875 -0.609375 C 21 -0.203125 20.238281 0 19.40625 0 L 1.140625 0 L 1.140625 -4.5625 L 19.40625 -4.5625 L 19.40625 -9.125 L 5.703125 -9.125 C 4.867188 -9.125 4.101562 -9.328125 3.40625 -9.734375 C 2.71875 -10.148438 2.164062 -10.703125 1.75 -11.390625 C 1.34375 -12.085938 1.140625 -12.851562 1.140625 -13.6875 L 1.140625 -18.265625 C 1.140625 -19.097656 1.34375 -19.859375 1.75 -20.546875 C 2.164062 -21.242188 2.71875 -21.796875 3.40625 -22.203125 C 4.101562 -22.617188 4.867188 -22.828125 5.703125 -22.828125 Z M 23.96875 -22.828125 "/></g></g></g><g fill="#ffffff" fill-opacity="1"><g transform="translate(19.507775, 43.129476)"><g><path d="M 15.6875 0 L 6.140625 0 L 22.5625 -17.421875 L 8.046875 -17.421875 L 10.046875 -22.953125 L 34.53125 -22.953125 L 32.96875 -18.65625 Z M 15.6875 0 "/></g></g></g></svg>