<svg xmlns="http://www.w3.org/2000/svg" xmlns:xlink="http://www.w3.org/1999/xlink" width="73" zoomAndPan="magnify" viewBox="0 0 54.75 54.75" height="73" preserveAspectRatio="xMidYMid meet" version="1.0"><defs><clipPath id="e3a16591d2"><path d="M 0 0 L 54.054688 0 L 54.054688 54.054688 L 0 54.054688 Z M 0 0 " clip-rule="nonzero"/></clipPath><clipPath id="d008f1ae69"><path d="M 27.027344 0 C 12.101562 0 0 12.101562 0 27.027344 C 0 41.957031 12.101562 54.054688 27.027344 54.054688 C 41.957031 54.054688 54.054688 41.957031 54.054688 27.027344 C 54.054688 12.101562 41.957031 0 27.027344 0 Z M 27.027344 0 " clip-rule="nonzero"/></clipPath><clipPath id="a6c897711a"><path d="M 10.71875 9.425781 L 43.570312 9.425781 L 43.570312 46.007812 L 10.71875 46.007812 Z M 10.71875 9.425781 " clip-rule="nonzero"/></clipPath></defs><g clip-path="url(#e3a16591d2)"><g clip-path="url(#d008f1ae69)"><path fill="#058224" d="M 0 0 L 54.054688 0 L 54.054688 54.054688 L 0 54.054688 Z M 0 0 " fill-opacity="1" fill-rule="nonzero"/></g></g><g clip-path="url(#a6c897711a)"><path fill="#ffffff" d="M 39.882812 19.679688 C 39.277344 25.449219 37.882812 30.972656 34.667969 35.90625 C 32.820312 38.746094 30.441406 41.039062 27.496094 42.738281 C 27.136719 42.945312 26.898438 42.921875 26.558594 42.726562 C 22.859375 40.59375 20.128906 37.542969 18.148438 33.800781 C 16.292969 30.296875 15.1875 26.546875 14.566406 22.644531 C 14.40625 21.621094 14.285156 20.59375 14.164062 19.566406 C 14.121094 19.195312 14.25 19.074219 14.539062 18.929688 C 17.789062 17.316406 21.027344 15.691406 24.269531 14.070312 C 25.082031 13.664062 25.898438 13.269531 26.699219 12.847656 C 26.9375 12.726562 27.121094 12.71875 27.363281 12.839844 C 31.433594 14.882812 35.507812 16.925781 39.59375 18.945312 C 39.976562 19.136719 39.929688 19.375 39.882812 19.679688 Z M 43.238281 18.214844 C 43.230469 17.632812 42.988281 17.261719 42.472656 17.003906 C 37.566406 14.554688 32.664062 12.101562 27.761719 9.644531 C 27.613281 9.574219 27.46875 9.5 27.320312 9.425781 C 27.128906 9.425781 26.9375 9.425781 26.746094 9.425781 C 22.308594 11.644531 17.871094 13.867188 13.433594 16.089844 C 12.789062 16.414062 12.140625 16.738281 11.492188 17.0625 C 11.085938 17.265625 10.84375 17.585938 10.839844 18.046875 C 10.753906 23.574219 11.710938 28.902344 14.011719 33.945312 C 15.769531 37.804688 18.300781 41.050781 21.800781 43.5 C 23.21875 44.496094 24.738281 45.300781 26.347656 45.941406 C 26.460938 45.988281 26.609375 45.988281 26.675781 46.125 C 26.890625 46.125 27.105469 46.125 27.320312 46.125 C 28.363281 45.675781 29.40625 45.234375 30.394531 44.679688 C 34.429688 42.414062 37.398438 39.144531 39.511719 35.0625 C 41.03125 32.125 42 29.003906 42.59375 25.757812 C 43.050781 23.261719 43.277344 20.75 43.238281 18.214844 " fill-opacity="1" fill-rule="nonzero"/></g><path fill="#ffffff" d="M 33.964844 24.605469 C 31.601562 26.984375 29.230469 29.355469 26.847656 31.71875 C 26.25 32.3125 25.492188 32.304688 24.890625 31.714844 C 23.707031 30.546875 22.53125 29.371094 21.367188 28.1875 C 20.792969 27.605469 20.796875 26.796875 21.339844 26.261719 C 21.882812 25.726562 22.675781 25.734375 23.265625 26.308594 C 24.03125 27.050781 24.773438 27.808594 25.527344 28.558594 C 25.628906 28.664062 25.742188 28.761719 25.886719 28.902344 C 26.59375 28.195312 27.257812 27.527344 27.921875 26.859375 C 29.296875 25.484375 30.671875 24.105469 32.054688 22.734375 C 32.65625 22.136719 33.464844 22.125 34.011719 22.679688 C 34.546875 23.21875 34.546875 24.019531 33.964844 24.605469 Z M 36.945312 20.550781 C 33.710938 18.902344 30.484375 17.234375 27.261719 15.5625 C 27.070312 15.464844 26.921875 15.472656 26.738281 15.570312 C 26.101562 15.914062 25.457031 16.238281 24.8125 16.570312 C 22.246094 17.894531 19.679688 19.222656 17.109375 20.539062 C 16.882812 20.65625 16.777344 20.753906 16.8125 21.058594 C 16.90625 21.898438 17.003906 22.738281 17.132812 23.574219 C 17.625 26.761719 18.496094 29.824219 19.964844 32.683594 C 21.535156 35.742188 23.695312 38.230469 26.625 39.976562 C 26.894531 40.136719 27.082031 40.152344 27.367188 39.984375 C 29.699219 38.597656 31.582031 36.722656 33.046875 34.40625 C 35.589844 30.375 36.695312 25.863281 37.171875 21.152344 C 37.210938 20.902344 37.25 20.707031 36.945312 20.550781 " fill-opacity="1" fill-rule="nonzero"/></svg>