<svg xmlns="http://www.w3.org/2000/svg" xmlns:xlink="http://www.w3.org/1999/xlink" width="73" zoomAndPan="magnify" viewBox="0 0 54.75 54.75" height="73" preserveAspectRatio="xMidYMid meet" version="1.0"><defs><clipPath id="05a3af66d8"><path d="M 0 0 L 54.054688 0 L 54.054688 54.054688 L 0 54.054688 Z M 0 0 " clip-rule="nonzero"/></clipPath><clipPath id="66a78a825c"><path d="M 27.027344 0 C 12.101562 0 0 12.101562 0 27.027344 C 0 41.957031 12.101562 54.054688 27.027344 54.054688 C 41.957031 54.054688 54.054688 41.957031 54.054688 27.027344 C 54.054688 12.101562 41.957031 0 27.027344 0 Z M 27.027344 0 " clip-rule="nonzero"/></clipPath><clipPath id="dece919da4"><path d="M 13.140625 23 L 37 23 L 37 44.3125 L 13.140625 44.3125 Z M 13.140625 23 " clip-rule="nonzero"/></clipPath><clipPath id="2a1be978eb"><path d="M 27 8.476562 L 40.765625 8.476562 L 40.765625 22 L 27 22 Z M 27 8.476562 " clip-rule="nonzero"/></clipPath></defs><g clip-path="url(#05a3af66d8)"><g clip-path="url(#66a78a825c)"><path fill="#ff3131" d="M 0 0 L 54.054688 0 L 54.054688 54.054688 L 0 54.054688 Z M 0 0 " fill-opacity="1" fill-rule="nonzero"/></g></g><g clip-path="url(#dece919da4)"><path fill="#ffffff" d="M 34.433594 23.582031 C 33.539062 23.507812 32.746094 24.164062 32.527344 25.035156 L 31.867188 27.667969 C 31.492188 29.183594 30.175781 30.289062 28.605469 30.414062 C 27.132812 30.527344 25.484375 30.589844 23.707031 30.589844 C 23.242188 30.589844 22.769531 30.605469 22.300781 30.628906 C 18.609375 30.839844 15.476562 33.363281 14.507812 36.90625 L 13.371094 41.070312 C 13.140625 41.910156 13.472656 42.84375 14.242188 43.242188 C 14.515625 43.386719 14.804688 43.449219 15.082031 43.449219 C 15.871094 43.449219 16.597656 42.921875 16.816406 42.121094 L 17.984375 37.859375 C 18.230469 36.953125 18.726562 36.179688 19.382812 35.570312 L 19.320312 43.25 C 19.316406 43.699219 19.679688 44.066406 20.128906 44.066406 L 27.285156 44.066406 C 27.734375 44.066406 28.097656 43.699219 28.09375 43.25 L 28.019531 34.0625 C 28.3125 34.046875 28.605469 34.027344 28.886719 34.003906 C 32.003906 33.757812 34.601562 31.5625 35.359375 28.542969 L 36.039062 25.816406 C 36.308594 24.753906 35.574219 23.679688 34.433594 23.582031 Z M 34.433594 23.582031 " fill-opacity="1" fill-rule="nonzero"/></g><path fill="#ffffff" d="M 27.710938 25.5 C 27.710938 25.761719 27.6875 26.023438 27.636719 26.28125 C 27.582031 26.539062 27.507812 26.789062 27.40625 27.03125 C 27.304688 27.273438 27.183594 27.503906 27.039062 27.722656 C 26.890625 27.941406 26.726562 28.144531 26.539062 28.332031 C 26.351562 28.515625 26.152344 28.683594 25.933594 28.828125 C 25.714844 28.972656 25.484375 29.097656 25.242188 29.199219 C 24.996094 29.296875 24.746094 29.375 24.488281 29.425781 C 24.230469 29.476562 23.972656 29.503906 23.707031 29.503906 C 23.445312 29.503906 23.183594 29.476562 22.925781 29.425781 C 22.667969 29.375 22.417969 29.296875 22.175781 29.199219 C 21.933594 29.097656 21.703125 28.972656 21.484375 28.828125 C 21.265625 28.683594 21.0625 28.515625 20.878906 28.332031 C 20.691406 28.144531 20.527344 27.941406 20.378906 27.722656 C 20.234375 27.503906 20.109375 27.273438 20.011719 27.03125 C 19.910156 26.789062 19.832031 26.539062 19.78125 26.28125 C 19.730469 26.023438 19.707031 25.761719 19.707031 25.5 C 19.707031 25.238281 19.730469 24.976562 19.78125 24.71875 C 19.832031 24.460938 19.910156 24.210938 20.011719 23.96875 C 20.109375 23.726562 20.234375 23.496094 20.378906 23.277344 C 20.527344 23.058594 20.691406 22.855469 20.878906 22.667969 C 21.0625 22.484375 21.265625 22.316406 21.484375 22.171875 C 21.703125 22.023438 21.933594 21.902344 22.175781 21.800781 C 22.417969 21.699219 22.667969 21.625 22.925781 21.574219 C 23.183594 21.523438 23.445312 21.496094 23.707031 21.496094 C 23.972656 21.496094 24.230469 21.523438 24.488281 21.574219 C 24.746094 21.625 24.996094 21.699219 25.242188 21.800781 C 25.484375 21.902344 25.714844 22.023438 25.933594 22.171875 C 26.152344 22.316406 26.351562 22.484375 26.539062 22.667969 C 26.726562 22.855469 26.890625 23.058594 27.039062 23.277344 C 27.183594 23.496094 27.304688 23.726562 27.40625 23.96875 C 27.507812 24.210938 27.582031 24.460938 27.636719 24.71875 C 27.6875 24.976562 27.710938 25.238281 27.710938 25.5 Z M 27.710938 25.5 " fill-opacity="1" fill-rule="nonzero"/><g clip-path="url(#2a1be978eb)"><path fill="#ffffff" d="M 34.601562 8.492188 C 31.125 8.492188 28.304688 11.3125 28.304688 14.789062 C 28.304688 15.953125 28.625 17.039062 29.175781 17.972656 L 28.019531 20.5 C 27.765625 21.058594 28.335938 21.632812 28.894531 21.375 L 31.417969 20.21875 C 32.355469 20.769531 33.441406 21.09375 34.601562 21.09375 C 38.082031 21.09375 40.902344 18.273438 40.902344 14.792969 C 40.90625 11.3125 38.082031 8.492188 34.601562 8.492188 Z M 31.675781 13.003906 C 31.675781 12.441406 32.132812 11.988281 32.691406 11.988281 C 33.253906 11.988281 33.707031 12.445312 33.707031 13.003906 C 33.707031 13.566406 33.253906 14.019531 32.691406 14.019531 C 32.128906 14.023438 31.675781 13.566406 31.675781 13.003906 Z M 36.808594 16.023438 C 36.808594 17.152344 35.894531 18.066406 34.761719 18.066406 L 34.480469 18.066406 C 33.347656 18.066406 32.433594 17.152344 32.433594 16.023438 L 32.433594 15.765625 C 32.433594 15.550781 32.609375 15.371094 32.832031 15.371094 L 36.410156 15.371094 C 36.628906 15.371094 36.808594 15.546875 36.808594 15.765625 Z M 36.546875 14.023438 C 35.984375 14.023438 35.53125 13.570312 35.53125 13.007812 C 35.53125 12.445312 35.988281 11.992188 36.546875 11.992188 C 37.109375 11.992188 37.5625 12.449219 37.5625 13.007812 C 37.5625 13.566406 37.109375 14.023438 36.546875 14.023438 Z M 36.546875 14.023438 " fill-opacity="1" fill-rule="nonzero"/></g><path fill="#ffffff" d="M 21.097656 19.230469 C 21.207031 19.632812 21.570312 19.898438 21.96875 19.898438 C 22.046875 19.898438 22.121094 19.886719 22.199219 19.867188 C 22.679688 19.742188 22.964844 19.246094 22.835938 18.765625 L 22.328125 16.871094 C 22.199219 16.390625 21.707031 16.109375 21.226562 16.234375 C 20.746094 16.363281 20.460938 16.855469 20.589844 17.335938 Z M 21.097656 19.230469 " fill-opacity="1" fill-rule="nonzero"/><path fill="#ffffff" d="M 18.3125 21.375 C 18.488281 21.554688 18.71875 21.640625 18.949219 21.640625 C 19.179688 21.640625 19.410156 21.554688 19.585938 21.375 C 19.9375 21.023438 19.9375 20.457031 19.585938 20.101562 L 18.199219 18.71875 C 17.847656 18.367188 17.277344 18.367188 16.925781 18.71875 C 16.574219 19.070312 16.574219 19.640625 16.925781 19.992188 Z M 18.3125 21.375 " fill-opacity="1" fill-rule="nonzero"/><path fill="#ffffff" d="M 15.082031 24.117188 L 16.976562 24.628906 C 17.054688 24.648438 17.132812 24.65625 17.207031 24.65625 C 17.605469 24.65625 17.96875 24.390625 18.078125 23.992188 C 18.203125 23.511719 17.917969 23.015625 17.441406 22.890625 L 15.546875 22.378906 C 15.0625 22.25 14.570312 22.539062 14.445312 23.015625 C 14.316406 23.496094 14.601562 23.992188 15.082031 24.117188 Z M 15.082031 24.117188 " fill-opacity="1" fill-rule="nonzero"/></svg>